<svg width="912" height="690" viewBox="0 0 912 690" fill="none" xmlns="http://www.w3.org/2000/svg">
<path d="M413.491 95C416.369 95.0913 418.805 96.1866 420.576 97.9668C422.303 99.7926 423.365 102.304 423.409 105.271L423.498 112.437L423.587 119.604V123.072C423.587 133.206 423.586 145.165 423.631 157.398C423.498 169.54 423.498 182.047 423.542 193.413V195.33L423.454 203.318L423.365 211.307C423.321 214.228 422.302 216.692 420.664 218.473C419.026 220.253 416.679 221.349 413.89 221.531H373.466C380.683 236.412 385.331 251.11 387.634 265.899C389.936 280.689 389.936 295.524 387.855 310.633C383.162 344.867 368.817 374.309 346.679 396.539C324.496 418.814 294.477 433.878 258.348 439.401C247.013 441.136 235.545 442.003 224.033 442.368C212.522 442.779 200.921 442.733 189.321 442.688C185.115 442.688 180.908 442.643 176.702 442.643C172.496 442.643 168.334 442.688 164.128 442.733C157 442.87 150.535 445.472 145.798 449.763C141.06 454.053 138.137 460.125 138.049 467.154C137.96 473.499 139.953 478.657 143.893 482.263C147.834 485.823 153.767 487.877 161.559 487.969C165.19 488.014 170.238 488.015 176.348 488.061C182.458 488.106 189.631 488.061 197.468 488.061C219.207 488.015 246.128 487.969 270.081 488.288C294.034 488.608 314.933 489.201 324.718 490.479C352.479 494.131 375.414 505.68 392.194 522.249C408.975 538.819 419.602 560.455 422.79 584.282C424.65 605.782 418.14 630.02 411.012 649.283C403.884 668.544 396.048 682.74 395.25 684.202L395.294 684.157L395.338 684.111C395.294 684.157 395.294 684.202 395.25 684.202C395.206 684.248 395.205 684.248 395.161 684.294C394.364 685.983 393.168 687.398 391.663 688.356C390.158 689.315 388.298 689.908 386.218 689.908C386.129 689.908 386.085 689.908 385.996 689.954C385.952 689.954 385.863 690 385.774 690L379.222 689.908H287.437L280.441 690C280.375 690 280.333 690 280.279 689.98L280.16 689.928C280.106 689.909 280.065 689.908 279.999 689.908C277.032 689.863 274.553 688.767 272.737 686.941C270.922 685.116 269.904 682.559 269.815 679.501C269.815 679.501 269.859 673.475 269.903 667.085C269.948 660.695 269.992 653.893 269.992 652.387C270.036 642.116 267.822 634.676 263.085 629.792C258.347 624.908 251.086 622.58 241.036 622.58C220.846 622.58 200.7 622.854 180.51 623.082C160.32 623.31 140.13 623.538 119.984 623.538C115.557 623.538 111.129 623.402 106.746 622.991C102.318 622.626 97.9347 621.986 93.5956 621.073C71.989 616.554 53.747 608.11 39.623 595.056C25.4989 582.001 15.4924 564.335 10.3564 541.421C5.22033 518.461 6.94726 495.227 14.5185 474.412C22.0897 453.597 35.505 435.202 53.6581 421.827C56.5361 419.682 59.5035 417.673 62.4257 415.619C65.392 413.611 68.3142 411.603 71.2362 409.549C71.8561 408.727 71.6351 407.723 71.1923 406.992C70.7495 406.216 70.1295 405.668 70.0409 405.577C40.1545 387.045 21.0709 363.4 10.5331 336.058C-0.0486967 308.716 -2.12907 277.722 1.94425 244.446C5.92911 211.855 17.5739 184.877 35.373 162.967C53.172 141.057 77.1694 124.167 105.993 111.706C117.593 106.685 129.327 102.896 141.148 100.203C152.97 97.51 164.88 95.9125 176.835 95.2734C176.835 95.2734 233.553 95.228 291.466 95.1367C349.379 95.0911 408.444 95 413.182 95H413.491ZM202.462 188.712C181.032 188.712 161.639 197.659 147.603 212.129C133.568 226.599 124.89 246.592 124.89 268.685C124.89 290.777 133.568 310.77 147.603 325.24C161.639 339.71 181.032 348.657 202.462 348.657C223.892 348.657 243.285 339.71 257.32 325.24C271.4 310.816 280.078 290.823 280.078 268.73C280.078 246.638 271.4 226.645 257.364 212.175C243.284 197.705 223.892 188.712 202.462 188.712Z" fill="white"/>
<path d="M689.013 21.8457C689.974 17.9786 696.061 18.0251 696.938 21.9388C725.423 150.344 774.806 189.667 908.56 218.181C912.849 219.113 912.686 224.704 908.397 225.449C772.159 248.791 722.501 304.189 696.989 422.018C696.117 425.932 690.053 426.024 689.069 422.111C658.206 294.916 609.56 250.282 477.941 225.729C473.652 224.937 473.596 219.392 477.885 218.507C635.128 186.545 663.888 124.626 689.069 21.7987L689.013 21.8457ZM811.571 327.67C812.419 325.573 815.747 325.714 816.596 327.857L816.703 327.81C821.323 339.365 830.827 348.31 840.686 352.271C842.76 353.109 843.063 355.485 841.231 356.65C829.135 364.57 820.912 388.891 816.815 405.431C816.185 408.04 812.088 408.04 811.459 405.431C807.529 388.891 799.88 364.385 787.425 356.557C785.569 355.393 785.84 352.923 787.919 352.131C797.666 348.078 806.9 339.085 811.571 327.67ZM695.651 156.867C695.106 154.584 691.554 154.584 690.98 156.867C683.061 188.223 656.239 212.869 622.071 220.091C619.587 220.557 619.587 223.865 622.071 224.378C656.239 231.646 683.117 256.246 690.98 287.602C691.502 289.885 695.05 289.885 695.651 287.602C703.548 256.246 730.397 231.599 764.565 224.378C767.05 223.912 767.05 220.603 764.565 220.091C730.397 212.823 703.492 188.223 695.651 156.867ZM564.628 2.04423C565.206 -0.658064 569.383 -0.704655 569.957 2.04423C575.121 24.7342 585.936 62.1002 604.455 72.2105C606.423 73.2821 606.311 75.8447 604.181 76.6367C590.168 81.7618 576.128 95.4598 569.821 112.512C568.973 114.749 565.477 114.749 564.685 112.512L564.74 112.419C558.732 95.2269 544.72 81.9947 530.353 76.7299C528.111 75.9378 527.869 73.2821 529.915 72.2105C548.542 62.24 559.631 24.8739 564.628 2.04423Z" fill="white"/>
</svg>
